<?xml version="1.0" encoding="UTF-8"?>
<svg data-name="Layer 1" viewBox="0 0 493.46 480.85" xmlns="http://www.w3.org/2000/svg">
<path transform="translate(-353.27 -209.58)" d="m668.01 317.36h-26.256v223.85a26.744 26.744 0 0 1-26.744 26.744h-200.74v0.25592a26.744 26.744 0 0 0 26.744 26.744h226.99a26.744 26.744 0 0 0 26.744-26.744v-224.1a26.744 26.744 0 0 0-26.744-26.744z" fill="#dac4b3"/>
<path transform="translate(-353.27 -209.58)" d="m792.47 673.09a2.2694 2.2694 0 0 0 1.6447-3.9333l-0.15549-0.61819q0.03071-0.07428 0.06178-0.1484a6.0942 6.0942 0 0 1 11.241 0.04177c1.8386 4.4282 4.1794 8.8639 4.7558 13.546a18.029 18.029 0 0 1-0.31648 6.2005 72.281 72.281 0 0 0 6.5752-30.021 69.764 69.764 0 0 0-0.43275-7.7829q-0.35848-3.1778-0.9947-6.3103a73.119 73.119 0 0 0-14.5-30.99 19.459 19.459 0 0 1-8.093-8.3965 14.843 14.843 0 0 1-1.3499-4.0562c0.394 0.05168 1.4856-5.9487 1.1884-6.3168 0.54906-0.83317 1.5318-1.2473 2.1314-2.0604 2.9823-4.0434 7.0912-3.3374 9.2362 2.1573 4.5822 2.3127 4.6266 6.1481 1.815 9.8368-1.7888 2.3468-2.0346 5.5223-3.6041 8.0348 0.16151 0.20671 0.32944 0.407 0.4909 0.61366a73.591 73.591 0 0 1 7.681 12.169 30.593 30.593 0 0 1 1.8264-14.21c1.7482-4.2173 5.0249-7.7692 7.9104-11.415a6.2792 6.2792 0 0 1 11.184 3.0833q0.00885 0.08063 0.01731 0.1612-0.6429 0.36267-1.2586 0.76991a3.0782 3.0782 0 0 0 1.2411 5.6018l0.06277 0.00967a30.627 30.627 0 0 1-0.80735 4.5794c3.7018 14.316-4.2901 19.53-15.701 19.764-0.25191 0.12916-0.49738 0.25832-0.74929 0.38109a75.114 75.114 0 0 1 4.0433 19.028 71.243 71.243 0 0 1-0.05168 11.503l0.01939-0.13562a18.826 18.826 0 0 1 6.4266-10.87c4.9456-4.0626 11.933-5.5587 17.268-8.8242a3.533 3.533 0 0 1 5.4112 3.4371l-0.02182 0.14261a20.677 20.677 0 0 0-2.3187 1.1173q-0.6429 0.36276-1.2586 0.76992a3.0782 3.0782 0 0 0 1.2411 5.6018l0.06282 0.00965c0.0452 0.00645 0.084 0.01294 0.12912 0.01943a30.654 30.654 0 0 1-5.6386 8.8292c-2.3146 12.497-12.256 13.683-22.89 10.044h-0.00648a75.093 75.093 0 0 1-5.0444 14.726h-18.02c-0.06463-0.20022-0.12274-0.40693-0.18089-0.60717a20.474 20.474 0 0 0 4.9863-0.297c-1.337-1.6406-2.674-3.2941-4.011-4.9346a1.1209 1.1209 0 0 1-0.084-0.09689c-0.67817-0.8396-1.3628-1.6728-2.041-2.5125l-3.6e-4 -1e-3a29.99 29.99 0 0 1 0.87876-7.6398z" fill="#3f4022"/>
<path transform="translate(-353.27 -209.58)" d="m593.99 286.92a8.2462 8.2462 0 0 0 12.466 1.5258l37.465 16.903 7.2231-9.2133-44.644-19.75a8.2346 8.2346 0 0 0-12.509 10.535z" fill="#a0616a"/>
<path transform="translate(-353.27 -209.58)" d="m754.78 297.46 3.7157 21.056a7.1547 7.1547 0 0 1-6.485 8.3761l-63.139 4.9651-74.217-33.216 8.8642-16.827 64.427 20.402z" fill="#6c63ff"/>
<rect y="72.789" width="280.48" height="277.59" rx="26.744" fill="#f2f2f2"/>
<path transform="translate(-353.27 -209.58)" d="m380.01 287.86a21.244 21.244 0 0 0-21.244 21.244v224.1a21.244 21.244 0 0 0 21.244 21.244h144.87a103.36 103.36 0 0 0 103.36-103.36v-141.98a21.244 21.244 0 0 0-21.244-21.244z" fill="#fff"/>
<path transform="translate(-353.27 -209.58)" d="m556.97 355.88h-127.41a4.408 4.408 0 1 1 0-8.816h127.41a4.408 4.408 0 0 1 0 8.816z" fill="#3f4022"/>
<path transform="translate(-353.27 -209.58)" d="m556.97 449.88h-127.41a4.408 4.408 0 1 1 0-8.816h127.41a4.408 4.408 0 0 1 0 8.816z" fill="#3f4022"/>
<path transform="translate(-353.27 -209.58)" d="m608.7 402.91h-230.88a4.408 4.408 0 1 1 0-8.8161h230.88a4.408 4.408 0 0 1 0 8.8161z" fill="#3f4022"/>
<polygon points="393.53 180.69 370.53 229.69 459.01 220.73 440.54 173.69" fill="#a0616a"/>
<polygon points="414.1 462.32 405.71 462.25 402 429.14 414.38 429.24" fill="#a0616a"/>
<path transform="translate(-353.27 -209.58)" d="m740.5 685.24a3.7554 3.7554 0 0 0 3.7184 3.7833l16.679 0.13917 2.9198-5.9185 1.0724 5.9486 6.2932 0.05707-1.5891-21.217-2.1895-0.14567-8.9306-0.61562-2.8812-0.19295-0.05055 6.003-13.398 9.0875a3.7491 3.7491 0 0 0-1.6434 3.0707z" fill="#2f2e41"/>
<polygon points="321.27 462.36 313.27 459.82 319.45 427.08 331.25 430.82" fill="#a0616a"/>
<path transform="translate(-353.27 -209.58)" d="m644.93 676.79a3.7554 3.7554 0 0 0 2.4427 4.7089l15.902 5.0334 4.5299-4.7994-0.72274 6.0012 5.9987 1.9036 4.7147-20.747-2.0501-0.78254-8.3556-3.2124-2.6974-1.031-1.8121 5.7232-15.477 4.7499a3.749 3.749 0 0 0-2.4731 2.4523z" fill="#2f2e41"/>
<path transform="translate(-353.27 -209.58)" d="m808.25 416.52-80.447 14.741s-12.903 9.652-9.4517 13.109 3.9871 2.9213 1.7194 5.189-7.1711 5.2992-7.2194 7.2835-36.048 90.984-36.048 90.984 4-2 1 1-3 5.4789-3 5.4789l-14 94.521 22.737 1.3386 22.263-86.173 49.659-80.504s4.9273 71.789 5.134 76.564 3.2067-1.2252 0.2067 4.7748-5 2-3 6-7.2047 85.435-7.2047 85.435h20.753l44.51-168.79s15.836-48.256-7.6111-70.949z" fill="#2f2e41"/>
<path transform="translate(-353.27 -209.58)" d="m784.55 281.51-32.225-3.3483-8.3489 10.839-9.7262 5.1802a24.275 24.275 0 0 0-12.815 22.962l11.366 66.119s-9.601 21.619-3 27-5.1036 18.707 9 12 75 1 75 1l-13-37 9.7114-36.358 1.0688-30.485a25.826 25.826 0 0 0-18.339-25.627l-1.3579-0.41034z" fill="#887b56"/>
<path transform="translate(-353.27 -209.58)" d="m828.91 256.81c0.21108 9.083-3.1834 17.878-8.0599 25.603-1.4489-4.5097-4.0536-8.6142-6.7701-12.527a38.995 38.995 0 0 1-4.15 24.696 5.2244 5.2244 0 0 1-0.44425 0.28489c-3.9748 2.391-9.0142 3.3594-13.314 1.6325 8.8843-9.5767 10.015-25.444 2.5664-36.186-2.1088-3.048-4.8361-5.7438-6.1423-9.2125-2.0623-5.5345-0.07985-11.628 1.1707-17.398 1.1694-5.3704 1.3741-11.761-2.2289-15.697a3.7863 3.7863 0 0 1 3.4701-1.5977c2.2214 0.31379 3.8384 2.2446 4.8683 4.2333 1.0298 1.9886 1.709 4.1927 3.1443 5.9103 2.6579 3.215 7.1841 3.9751 10.999 5.6695 9.2377 4.1146 14.67 14.482 14.891 24.589z" fill="#2f2e41"/>
<path transform="translate(-353.27 -209.58)" d="m590.92 689.23a1.1865 1.1865 0 0 0 1.1901 1.19h253.29a1.19 1.19 0 0 0 0-2.38h-253.29a1.1865 1.1865 0 0 0-1.1901 1.19z" fill="#ccc"/>
<circle cx="477.64" cy="248.75" r="9" fill="#6c63ff"/>
<path transform="translate(-353.27 -209.58)" d="m751.16 251.61c0.52788-1.8476-3.1106 9.4463-1.3549 9.6502 7.9966 0.91738 18.974 5.6932 24.543 7.9212 0.25083-0.02915 0.50167-0.05826 0.74507-0.09466 0.59753-0.06555 1.1803-0.1602 1.7557-0.26939 12.969-2.4537 17.956-22.375 17.956-22.557 0-0.89557-2.1494-25.493-5.5354-25.857a24.957 24.957 0 0 0-2.6778-0.14563h-8.4023a39.048 39.048 0 0 0-5.2745-0.76451h-0.01476c-16.915-1.2888-30.253 9.0212-29.006 21.567 0.00738 0.01453 0.02215 0.02911 0.02949 0.04368 0.36151 0.5388 0.67871 1.0485 0.959 1.5363 0.27294 0.45871 0.50162 0.89556 0.70077 1.3106 1.5418 3.2037-2.4213 7.235 0.20657 7.9874 3.4951 1.0008-9.1923 33.894 4.6418 33.894-6.7292 1.9132-0.72808-29.124 0.72814-34.221z" fill="#2f2e41"/>
<circle cx="412.99" cy="41.443" r="19.894" fill="#a0616a"/>
<path transform="translate(-353.27 -209.58)" d="m743.89 242.15c0.332 0.17474 0.65656 0.3349 0.98853 0.49511 0.34669 0.16745 0.69343 0.33494 1.0401 0.48782 6.6614 3.0217 12.083 3.3566 15.374-0.98293a18.392 18.392 0 0 1 1.5123-6.6258 10.65 10.65 0 0 0 1.7557 6.6258h6.6245c6.8237 4.5288 10.328 5.0021 5.5917 19.87-1.3205 4.143-6.5709 28.251-4.5054 31.826 0.59753-0.06555 6.9546-26.471 7.5299-26.58 12.969-2.4537 21.209-23.82 20.154-25.028a22.275 22.275 0 0 0-2.309-9.9096 22.793 22.793 0 0 0-8.6605-9.4218 40.166 40.166 0 0 0-6.9196-2.5994c-0.059-0.01458-0.11067-0.02915-0.16966-0.04368-0.7303-0.19661-1.4754-0.37864-2.2205-0.53155a40.842 40.842 0 0 0-4.6622-0.70625c-0.11067-0.00729-0.22129-0.01458-0.32458-0.01458a3.5131 3.5131 0 0 0-1.7778 0.48787c-0.00739 0-0.00739 0.00724-0.01477 0.00724a3.3473 3.3473 0 0 0-0.98853 0.881 3.3857 3.3857 0 0 0-0.72292 2.1042h-7.3769q-0.40941 0-0.81882 0.02182a19.78 19.78 0 0 0-19.069 18.596c-0.02211 0.34948-0.02949 0.69167-0.02949 1.0412z" fill="#2f2e41"/>
<circle cx="434.12" cy="13.106" r="13.106" fill="#2f2e41"/>
<path transform="translate(-353.27 -209.58)" d="m831.01 462.03a8.2462 8.2462 0 0 0-3.7168-11.996l0.06486-41.101-11.364-2.813 0.27989 48.817a8.2346 8.2346 0 0 0 14.736 7.0933z" fill="#a0616a"/>
<path transform="translate(-353.27 -209.58)" d="m774.73 311.05 17.684-12.018a7.1547 7.1547 0 0 1 10.298 2.4828l30.404 55.559 0.11616 81.31-18.982-1.1898-7.7923-67.129z" fill="#6c63ff"/>
<path transform="translate(-353.27 -209.58)" d="m638.92 495.45h-189a15.5 15.5 0 0 0 0 31h189a15.5 15.5 0 1 0 0-31z" fill="#fff"/>
<path transform="translate(-353.27 -209.58)" d="m638.92 527.45h-189a16.5 16.5 0 0 1 0-33h189a16.5 16.5 0 1 1 0 33zm-189-31a14.5 14.5 0 0 0 0 29h189a14.5 14.5 0 1 0 0-29z" fill="#887b56"/>
<path transform="translate(-353.27 -209.58)" d="m650.06 563.1h-83.406a4.408 4.408 0 1 1 0-8.8161h83.406a4.408 4.408 0 0 1 0 8.8161z" fill="#6c63ff"/>
</svg>
