<?xml version="1.0" encoding="UTF-8"?>
<svg viewBox="0 0 572.86 457.18" xmlns="http://www.w3.org/2000/svg">
<g class="layer">
<title>Layer 1</title>
<polygon points="458.34 450.53 449.08 450.53 444.68 414.82 458.34 414.82" fill="#ffb6b6"/>
<path d="m426.62 450.32c-0.29 0.49-0.44 2.06-0.44 2.62 0 1.74 1.4 3.14 3.14 3.14h28.68c1.18 0 2.14-0.96 2.14-2.14v-1.19s1.42-3.59-1.5-8.02c0 0-3.63 3.47-9.06-1.96l-1.6-2.89-11.57 8.46-6.42 0.79c-1.41 0.18-2.65-0.02-3.37 1.19z" fill="#2f2e41"/>
<polygon points="416.24 450.53 406.98 450.53 402.58 414.82 416.24 414.82" fill="#ffb6b6"/>
<path d="m384.52 450.32c-0.29 0.49-0.44 2.06-0.44 2.62 0 1.74 1.4 3.14 3.14 3.14h28.68c1.18 0 2.14-0.96 2.14-2.14v-1.19s1.42-3.59-1.5-8.02c0 0-3.63 3.47-9.06-1.96l-1.6-2.89-11.57 8.46-6.42 0.79c-1.41 0.18-2.65-0.02-3.37 1.19z" fill="#2f2e41"/>
<polygon points="473.2 227.54 408.76 229.26 402.19 244.73 394.16 345.25 401.03 433.75 421.1 433.75 421.1 350.23 436.26 298.86 442.27 431.17 462.99 433.75 471.48 342.68 479.22 255.9" fill="#2f2e41"/>
<path d="m450.31 112.41-22.34 0.86-2.58 10.31s-27.49 7.73-25.77 18.04 10.31 55.85 10.31 55.85-9.45 29.21-3.44 32.65 67.99 0 67.99 0 5.04-12.89 2.46-14.61 7.74-84.2 6.02-85.92c-1.72-1.71-30.07-10.31-30.07-10.31l-2.58-6.87z" fill="#887b56"/>
<polygon points="494.13 198.33 495.85 210.36 476.94 253.32 467.49 248.16 477.8 207.78 479.52 192.32" fill="#ffb6b6"/>
<path d="m476.08 130.45s9.46-4.29 16.33 11.17c6.87 15.47 5.15 48.98 5.15 48.98s2.58 2.57 0.86 4.29-4.98-2.32-1.71 3.14c1.71 2.88 6.87 2.02 1.71 2.88-5.15 0.86-3.34-1.54-1.71 1.72 0.85 1.71 4.29 1.71 0.85 2.57-3.43 0.86-20.72-0.61-20.72-0.61s-5.91-2.82-2.47-4.54 5.15-2.06 3.43-2.75-6.01-0.69-3.43-3.27 4.29-2.57 2.57-2.57-3.65-4.14-3.65-4.14l2.79-56.87z" fill="#6c63ff"/>
<ellipse transform="translate(75.513 621.4) rotate(-71.527)" cx="469.13" cy="258.28" rx="11.96" ry="7.1" fill="#ffb6b6"/>
<polygon points="374.44 194.26 367.6 204.31 324.69 223.32 321.18 213.14 356.01 190.24 367.7 179.97" fill="#ffb6b6"/>
<path d="m406.84 131.95s9.88 3.19 4.53 19.25c-5.34 16.06-29.18 39.66-29.18 39.66s0.16 3.64-2.26 3.76-2.12-5.08-3.39 1.16c-0.67 3.28 3.72 6.12-0.67 3.28-4.38-2.84-1.43-3.4-2.42 0.11-0.53 1.85 2.01 4.17-1.11 2.49-3.11-1.69-14.9-14.43-14.9-14.43s-2.46-6.06 1.24-5.01 5.19 1.95 4.39 0.28c-0.81-1.67-3.98-4.56-0.34-4.73s4.91 0.99 3.64-0.17 0.09-5.52 0.09-5.52l40.38-40.13z" fill="#6c63ff"/>
<ellipse transform="translate(-68.041 181.91) rotate(-29.168)" cx="315.57" cy="221.71" rx="11.96" ry="7.1" fill="#ffb6b6"/>
<circle cx="440.11" cy="87.58" r="20.63" fill="#ffb6b6"/>
<path d="m423.63 70.98c1.05-2.98 3.96-4.79 7.12-4.71 0.13 0 0.27 0 0.4-0.01 1.59-0.06 3.12-0.61 4.68-0.92 2.9-0.6 5.96-0.4 8.77 0.56 0.87 0.3 1.74 0.68 2.66 0.68 0.93 0 1.93-0.5 2.15-1.4 0.06 0.81 0.11 1.62 0.16 2.43 0.3-0.66 0.6-1.31 0.9-1.97l0.6 2.62 1.93-2.19c-0.17 0.97 0.39 1.94 1.15 2.55 0.76 0.62 1.7 0.96 2.59 1.34 3.89 1.65 7.53 4.58 8.65 8.65 0.7 2.57 0.33 5.3-0.04 7.94-0.33 2.33-0.69 4.74-1.96 6.73-0.81 1.27-1.98 2.34-2.48 3.77-0.46 1.33-0.28 2.85-0.94 4.1s-2.02 1.96-3.35 2.44c-1.34 0.47-2.75 0.81-3.9 1.63-1.14 0.83-2.48 3.21-4.97 3.09l-0.81-1.52c-0.83-0.67 2.24-0.14 2.27-1.21s-3.69-1.73-3.17-2.66c0.81-1.43 1.91-2.67 2.82-4.03 1.07-1.6 1.91-3.46 1.54-5.41-0.14-0.76-0.5-1.47-1.04-2.02-1.55-1.59-3.29-0.89-4.97-0.67-1.17 0.16-2.56-0.02-3.16-1.03-0.71-1.17 0.08-2.67-0.01-4.04-0.11-1.45-1.21-2.64-2.4-3.47-1.2-0.82-2.56-1.42-3.63-2.4-1.08-0.98-0.91-0.47-0.44-1.85-8 6-6.82-4.36-12.19-3.06 0.26-1.35 0.62-2.67 1.07-3.96z" fill="#2f2e41"/>
<path d="m325.5 439.92c-2.1 1.1-4.2 2.59-5.8 5.22-0.3 0.49-0.56 1.03-0.81 1.59 0.7-5.03 2.11-9.76 4.14-13.7 0.75-1.45-0.51-3.59-1.26-2.12-3.22 1.67-4.58 5.58-5.1 10.22-0.64-1.66-1.42-3.16-2.34-4.41-0.38-0.51-0.9-0.61-1.26 0-0.32 0.53-0.38 1.61 0 2.13-1.39 7.27 2.19 9.53 3.42 13.15 0.03 0.81 0.06 1.6 0.09 2.37 0.02 0.77 0.32 1.23 0.65 1.39 0.17 0.43 0.47 0.72 0.77 0.72 0.5 0 0.86-0.69 0.89-1.5 0.1-2.98 0.41-8.15 2.18-7.88 3.76 0.59 3.94-2.46 4.91-4.28 0.76-1.44 0.63-3.47-0.48-2.9z" fill="#e6e6e6"/>
<path d="m515 439.92c2.1 1.1 4.2 2.59 5.8 5.22 0.3 0.49 0.57 1.03 0.82 1.59-0.71-5.03-2.12-9.76-4.15-13.7-0.75-1.45 0.51-3.59 1.26-2.12 3.22 1.67 4.58 5.58 5.1 10.22 0.64-1.66 1.43-3.16 2.34-4.41 0.38-0.51 0.9-0.61 1.27 0 0.31 0.53 0.37 1.61 0 2.13 1.38 7.27-2.19 9.53-3.43 13.15-0.03 0.81-0.06 1.6-0.08 2.37-0.03 0.77-0.32 1.23-0.66 1.39-0.17 0.43-0.46 0.72-0.77 0.72-0.5 0-0.86-0.69-0.89-1.5-0.1-2.98-0.4-8.15-2.17-7.88-3.77 0.59-3.94-2.46-4.92-4.28-0.76-1.44-0.62-3.47 0.48-2.9z" fill="#e6e6e6"/>
<path d="m167.19 455.99c0 0.66 0.53 1.19 1.19 1.19h403.29c0.66 0 1.19-0.53 1.19-1.19s-0.53-1.19-1.19-1.19h-403.29c-0.66 0-1.19 0.53-1.19 1.19z" fill="#ccc"/>
<path d="m217.91 457.18h-176.42c-21.51 0-39.01-17.51-39.01-39.02v-379.15c0-21.51 17.5-39.01 39.01-39.01h176.42c21.52 0 39.02 17.5 39.02 39.01v379.15c0 21.51-17.5 39.02-39.02 39.02z" fill="#3f3d56"/>
<path d="m256.93 139.46c-0.91 0-1.65 0.74-1.65 1.65v52.82c0 0.91 0.74 1.65 1.65 1.65s1.65-0.74 1.65-1.65v-52.82c0-0.91-0.74-1.65-1.65-1.65z" fill="#3f3d56"/>
<path d="m253.21 39.01v379.15c0 18.72-14.57 34.04-33 35.22h-0.01c-0.27 0.02-0.54 0.04-0.82 0.05-0.49 0.02-0.97 0.03-1.47 0.03 0 0-1.82-0.13-5.13-0.38-3.35-0.25-8.23-0.62-14.31-1.11-1.83-0.14-3.75-0.29-5.78-0.46-4.04-0.33-8.48-0.69-13.24-1.1-1.9-0.16-3.87-0.33-5.87-0.51-10.25-0.88-21.73-1.91-33.84-3.08-2.04-0.19-4.1-0.39-6.18-0.6-0.55-0.06-1.1-0.11-1.65-0.16-8.64-0.85-125.72-23.48-125.72-27.9v-379.15c0-19.5 15.8-35.3 35.3-35.3h21.08c3.37 0 6.07 2.62 6.36 5.98 0.03 0.23 0.05 0.45 0.09 0.67 0.61 3.38 3.71 5.73 7.14 5.73h107.08c3.44 0 6.53-2.35 7.14-5.73 0.04-0.22 0.07-0.44 0.09-0.67 0.29-3.36 3-5.98 6.36-5.98h21.08c19.5 0 35.3 15.8 35.3 35.3z" fill="#fff"/>
<path d="m1.65 99.85c-0.91 0-1.65 0.74-1.65 1.65v13.21c0 0.91 0.74 1.65 1.65 1.65s1.65-0.74 1.65-1.65v-13.21c0-0.91-0.74-1.65-1.65-1.65z" fill="#3f3d56"/>
<path d="m1.65 139.46c-0.91 0-1.65 0.74-1.65 1.65v25.59c0 0.91 0.74 1.65 1.65 1.65s1.65-0.74 1.65-1.65v-25.59c0-0.91-0.74-1.65-1.65-1.65z" fill="#3f3d56"/>
<path d="m1.65 175.77c-0.91 0-1.65 0.74-1.65 1.65v25.59c0 0.91 0.74 1.65 1.65 1.65s1.65-0.74 1.65-1.65v-25.59c0-0.91-0.74-1.65-1.65-1.65z" fill="#3f3d56"/>
<rect x="30.12" y="9.49" width="32.18" height="4.13" rx=".31" ry=".31" fill="#e6e6e6"/>
<circle cx="202.05" cy="10.32" r="3.3" fill="#e6e6e6"/>
<circle cx="211.13" cy="10.32" r="3.3" fill="#e6e6e6"/>
<circle cx="220.2" cy="10.32" r="3.3" fill="#e6e6e6"/>
<polygon points="244.29 435.58 251.91 433.66 246.7 398.49 235.46 401.32" fill="#ffb6b6"/>
<path d="m274.63 444.17c0.35 1.28-0.27 2.57-1.39 2.88l-15.02 4.16s-3.12-5.53-9.86-6.42l1.94 8.61-7.75 2.15-2.85-13.93s-4.1-6.73-0.83-11.66-0.07-3.45-0.07-3.45l-0.65-8.92 12.09-1.87 3.77 13.25 9.33 11.61 9.48 1.8c0.84 0.16 1.55 0.87 1.81 1.79z" fill="#2f2e41"/>
<polygon points="171.34 429.46 178.68 432.25 194.55 400.44 183.71 396.33" fill="#ffb6b6"/>
<path d="m191.29 453.88c-0.44 1.25-1.68 1.95-2.78 1.56l-14.7-5.18s0.61-6.33-4.41-10.91l-3.34 8.17-7.58-2.67 5.63-13.05s0.5-7.87 6-10.04 1.91-2.87 1.91-2.87l4.58-7.69 10.98 5.39-4.5 13.02 1.02 14.86 6.73 6.91c0.6 0.61 0.78 1.59 0.46 2.5z" fill="#2f2e41"/>
<path d="m203.22 114.96h-38.97c0.06-1.83-0.33-3.66-1.13-5.3-0.02 1.82-0.43 3.64-1.19 5.3h-1.77c-2.7 0-4.9-2.2-4.9-4.91v-25.32c0-12.4 9.74-22.62 22.12-23.21 0.37-0.02 0.74-0.03 1.11-0.03 10.08 0 19.09 6.54 22.16 16.24 4.5-2.08 7.2 9.72 8.99 28.46 1.36 4.35-1.88 8.77-6.42 8.77z" fill="#2f2e41"/>
<path d="m279.7 259.74c1.93 4.58 1.13 9.29-1.78 10.52-2.92 1.23-6.85-1.49-8.78-6.07-0.84-2-1.17-4.03-1.02-5.78l-7.94-19.51 9.23-3.53 6.85 19.6c1.36 1.12 2.59 2.77 3.44 4.77z" fill="#ffb6b6"/>
<path d="m195.31 107.39-18.63 3.89 2.86 8.57-5.72 65.56 9.52 21.11 58.1-4.76-14.28-28.57s5.71-23.81-1.91-28.57-20-28.58-20-28.58l-9.94-8.65z" fill="#887b56"/>
<path d="m176.94 114.07-16.5 6.69 5.71 83.81-12.38 72.38 40 6.67s-4.76-160-7.62-162.86-9.21-6.69-9.21-6.69z" fill="#2f2e41"/>
<path d="m209.26 124.53s10.74-6.8 16.54-1.77 50.47 126.63 50.47 126.63l-12.05 5.24-27.63-57.94-27.33-72.16z" fill="#2f2e41"/>
<path d="m240.02 329.4 10.9 83.75-15.24 0.95s-7.92-21.62-16.96-47.09c-1.93-5.4-3.9-10.97-5.85-16.55-2.12-6.06-4.22-12.12-6.22-17.96-4.94-14.42-9.28-27.55-11.75-36.12-0.43-1.5-0.81-2.87-1.13-4.07-6.66-25.6-10.47-92.5-10.47-92.5l55.24-4.76 0.59 0.73 11.79 14.73-0.55 3.12-14.69 82.37 4.34 33.4z" fill="#2f2e41"/>
<path d="m235.68 296 4.34 33.4-19.53 34.39-1.77 3.22-26.9 48.88-13.28-7.54s17.28-39.72 28.11-75.85c1.2-3.98 2.31-7.91 3.31-11.74 2.95-11.21-1.87-31.66 0.01-37.3 6.38-19.03 27.14-57.1 36.78-74.35l3.62 4.52-14.69 82.37z" fill="#2f2e41"/>
<polygon points="204.01 114.32 223.3 121.71 273.78 269.33 243.3 274.09 229.01 188.38" fill="#2f2e41"/>
<path d="m155.78 273.67c-0.49 4.94-3.44 8.7-6.59 8.39s-5.3-4.58-4.81-9.53c0.22-2.16 0.9-4.1 1.87-5.57l2.34-20.93 9.8 1.31-3.35 20.5c0.66 1.63 0.96 3.66 0.74 5.83z" fill="#ffb6b6"/>
<path d="m167.11 120.76s-12.38-2.86-16.19 3.81c-3.81 6.66-5.72 136.19-5.72 136.19l13.1 0.95 6.9-63.81 1.91-77.14z" fill="#2f2e41"/>
<circle cx="182.91" cy="84.28" r="19.8" fill="#ffb6b6"/>
<path d="m207.76 82.58s-9.64-2.86-15.42 0c-8.02 3.97-28.51 0-28.51 0v-8.95c0-5.23 3.89-9.64 9.07-10.28l14.79-1.85c11.6-1.45 21.85 7.6 21.85 19.29 0 0.99-0.79 1.79-1.78 1.79z" fill="#2f2e41"/>
<path d="m186.69 114.96h-22.44c0.06-1.83-0.33-3.66-1.13-5.3-0.02 1.82-0.43 3.64-1.19 5.3h-0.96v-40h17.15l8.57 40z" fill="#2f2e41"/>
</g>
</svg>
